<?xml version="1.0" encoding="UTF-8"?>
<svg id="_图层_2" data-name="图层 2" xmlns="http://www.w3.org/2000/svg" viewBox="0 0 126.54 128.04">
  <defs>
    <style>
      .cls-1 {
        fill: #fff;
      }

      .cls-2 {
        stroke: #000;
        stroke-width: .5px;
      }

      .cls-2, .cls-3 {
        fill: none;
        stroke-miterlimit: 10;
      }

      .cls-3 {
        stroke: #353535;
        stroke-linecap: round;
        stroke-width: 6px;
      }
    </style>
  </defs>
  <g id="_图层_1-2" data-name="图层 1">
    <g>
      <g>
        <path class="cls-1" d="M126.29,64.48c0,33.88-30.51,63.32-64.39,63.32S.25,98.36.25,64.48,28.01.25,61.9.25s64.39,30.34,64.39,64.23Z"/>
        <path class="cls-2" d="M126.29,64.48c0,33.88-30.51,63.32-64.39,63.32S.25,98.36.25,64.48,28.01.25,61.9.25s64.39,30.34,64.39,64.23Z"/>
      </g>
      <g>
        <path class="cls-3" d="M39.41,62.88c0,2.38.09,4.76.09,7.14"/>
        <path class="cls-1" d="M37,62.23c0,2.45.08,4.9.09,7.34v-.34s0,.09,0,.14c0,.46.12.72.48,1.04.42.39,1.07.68,1.61.81s1.22.25,1.8.1c.3-.08.94-.26.94-.66,0-2.45-.08-4.9-.09-7.34v.34s0-.09,0-.14c0-.46-.12-.72-.48-1.04-.42-.39-1.07-.68-1.61-.81s-1.22-.25-1.8-.1c-.3.08-.94.26-.94.66h0Z"/>
      </g>
      <g>
        <path class="cls-3" d="M49.87,61.9c0,2.81-.06,5.63-.06,8.44"/>
        <path class="cls-1" d="M47.46,61.26c0,2.81-.06,5.63-.06,8.44,0,.46.12.72.48,1.04.42.39,1.07.68,1.61.81s1.22.25,1.8.1c.3-.08.94-.26.94-.66,0-2.81.06-5.63.06-8.44,0-.46-.12-.72-.48-1.04-.42-.39-1.07-.68-1.61-.81s-1.22-.25-1.8-.1c-.3.08-.94.26-.94.66h0Z"/>
      </g>
      <g>
        <path class="cls-3" d="M60.25,61.58c-.42,3.05-.06,6.18.84,9.13"/>
        <path class="cls-1" d="M57.83,60.93c-.43,3.18-.09,6.41.84,9.47.31,1.03,1.78,1.54,2.74,1.64.57.06,2.41.03,2.08-1.03-.86-2.85-1.24-5.82-.84-8.78.14-1.03-1.29-1.66-2.09-1.85-.57-.14-1.22-.25-1.8-.1-.34.09-.88.25-.94.66h0Z"/>
      </g>
      <g>
        <path class="cls-3" d="M73.59,61.91c-.18,2.17-.15,4.35.16,6.5"/>
        <path class="cls-1" d="M71.18,61.26c-.18,2.28-.16,4.58.16,6.85.06.42.6.83.92,1.02.52.32,1.22.56,1.83.62.71.07,2.24.05,2.08-1.03-.19-1.28-.27-2.58-.27-3.87v.34c0-.88.04-1.76.11-2.63.08-1.04-1.25-1.65-2.09-1.85-.57-.14-1.22-.25-1.8-.1-.32.08-.9.25-.94.66h0Z"/>
      </g>
      <g>
        <path class="cls-3" d="M85.22,61.9c-.31,2.38,0,4.83.73,7.12"/>
        <path class="cls-1" d="M82.81,61.25c-.31,2.51-.02,5.06.73,7.46.33,1.03,1.77,1.54,2.74,1.64.51.05,1.13.09,1.59-.17.31-.18.62-.46.49-.87-.54-1.7-.84-3.47-.85-5.26v.34c0-.62.04-1.24.12-1.86.13-1.03-1.28-1.66-2.09-1.85-.57-.14-1.22-.25-1.8-.1-.33.09-.88.25-.94.66h0Z"/>
      </g>
    </g>
  </g>
</svg>